<?xml version="1.0" encoding="UTF-8" standalone="no"?><!DOCTYPE svg PUBLIC "-//W3C//DTD SVG 1.1//EN" "http://www.w3.org/Graphics/SVG/1.1/DTD/svg11.dtd"><svg width="100%" height="100%" viewBox="0 0 256 256" version="1.1" xmlns="http://www.w3.org/2000/svg" xmlns:xlink="http://www.w3.org/1999/xlink" xml:space="preserve" xmlns:serif="http://www.serif.com/" style="fill-rule:evenodd;clip-rule:evenodd;stroke-linejoin:round;stroke-miterlimit:1.41421;"><g id="Layer1"></g><path d="M212.15,0.5c23.926,0 43.35,19.425 43.35,43.35l0,168.3c0,23.926 -19.424,43.35 -43.35,43.35l-168.3,0c-23.926,0 -43.35,-19.424 -43.35,-43.35l0,-168.3c0,-23.925 19.424,-43.35 43.35,-43.35l168.3,0Zm-49.034,137.568c15.555,0 28.184,12.521 28.184,27.943c0,15.422 -12.629,27.942 -28.184,27.942c-15.555,0 -28.184,-12.52 -28.184,-27.942c0,-15.422 12.629,-27.943 28.184,-27.943Zm-71.426,0c15.555,0 28.184,12.521 28.184,27.943c0,15.422 -12.629,27.942 -28.184,27.942c-15.555,0 -28.183,-12.52 -28.183,-27.942c0,-15.422 12.628,-27.943 28.183,-27.943Zm-35.712,-61.156c15.555,0 28.183,12.521 28.183,27.943c0,15.422 -12.628,27.943 -28.183,27.943c-15.555,0 -28.184,-12.521 -28.184,-27.943c0,-15.422 12.629,-27.943 28.184,-27.943Zm142.851,0c15.555,0 28.184,12.521 28.184,27.943c0,15.422 -12.629,27.943 -28.184,27.943c-15.555,0 -28.184,-12.521 -28.184,-27.943c0,-15.422 12.629,-27.943 28.184,-27.943Zm-71.426,0c15.555,0 28.184,12.521 28.184,27.943c0,15.422 -12.629,27.943 -28.184,27.943c-15.555,0 -28.184,-12.521 -28.184,-27.943c0,-15.422 12.629,-27.943 28.184,-27.943Z" style="fill:#03cd7b;"/></svg>